<?xml version="1.0" encoding="utf-8"?>
<!-- Generator: Adobe Illustrator 18.1.1, SVG Export Plug-In . SVG Version: 6.00 Build 0)  -->
<svg version="1.1" id="Шар_1" xmlns="http://www.w3.org/2000/svg" xmlns:xlink="http://www.w3.org/1999/xlink" x="0px" y="0px"
	 viewBox="373.6 958.4 1115.9 1139" enable-background="new 373.6 958.4 1115.9 1139" xml:space="preserve">
<linearGradient id="SVGID_1_" gradientUnits="userSpaceOnUse" x1="1347.1318" y1="1519.554" x2="1159.4521" y2="1469.2654">
	<stop  offset="0" style="stop-color:#1662E9"/>
	<stop  offset="1" style="stop-color:#22B6F3"/>
</linearGradient>
<path fill="url(#SVGID_1_)" d="M1192.4,1346.2l-100.3,674.3l89.7-233.2l12-74.9l196.1-517.6l37.6-45.8l61.9-160.7L1192.4,1346.2z
	 M1212.4,1522.2l23.1-155.5l68.5-82.5L1212.4,1522.2z"/>
<linearGradient id="SVGID_2_" gradientUnits="userSpaceOnUse" x1="885.1563" y1="932.1587" x2="1077.8939" y2="1355.8944">
	<stop  offset="0" style="stop-color:#1662E9"/>
	<stop  offset="1" style="stop-color:#22B6F3"/>
</linearGradient>
<path fill="url(#SVGID_2_)" d="M1331.8,983.3l-56.8,68.2L761.3,1141l-139.9-30.2l-211,37.9l754.8,168.1l305.1-358.4L1331.8,983.3z
	 M1133.6,1221.3l-220.1-49l309.1-55.5L1133.6,1221.3z"/>
<g>
	
		<linearGradient id="SVGID_3_" gradientUnits="userSpaceOnUse" x1="611.2654" y1="440.8476" x2="131.0828" y2="-131.4117" gradientTransform="matrix(-0.5391 0.8422 -0.8422 -0.5391 1138.0233 1393.1201)">
		<stop  offset="0" style="stop-color:#1662E9"/>
		<stop  offset="1" style="stop-color:#22B6F3"/>
	</linearGradient>
	<path fill="url(#SVGID_3_)" d="M1050.8,2097.4l99.6-744.1l-776.8-181.4l102,139.5l131.9,33.3l366.6,484.5L958.2,1971 M789.6,1395
		l227.4,53.1l-29.2,217.8L789.6,1395z"/>
</g>
</svg>
